<svg id="svg" xmlns="http://www.w3.org/2000/svg" xmlns:xlink="http://www.w3.org/1999/xlink" width="400" height="400" viewBox="0, 0, 400,400"><g id="svgg"><path id="path0" d="M150.000 39.111 C 136.979 40.894,130.101 42.387,118.359 45.979 C 68.741 61.161,22.501 108.127,7.830 158.245 C 6.957 161.230,5.914 164.727,5.514 166.016 C 5.113 167.305,4.373 170.469,3.869 173.047 C 3.366 175.625,2.406 180.547,1.737 183.984 C 0.027 192.777,0.033 223.681,1.747 232.422 C 2.421 235.859,3.333 240.605,3.773 242.969 C 5.001 249.561,8.159 260.688,11.248 269.301 C 40.000 349.475,120.350 387.801,165.694 342.969 C 181.642 327.201,189.816 308.085,189.077 288.281 C 188.354 268.886,188.599 264.023,190.512 259.766 C 194.769 250.294,203.008 246.011,214.585 247.251 C 221.451 247.986,221.462 247.856,213.139 264.601 C 209.122 272.684,205.002 281.230,203.985 283.594 C 202.967 285.957,201.670 288.945,201.101 290.234 C 189.495 316.549,193.214 334.693,209.959 333.448 C 223.362 332.451,247.360 310.197,281.595 267.015 C 284.566 263.268,288.077 259.701,289.397 259.089 C 290.717 258.476,294.113 256.904,296.943 255.594 C 309.033 250.001,331.250 228.470,331.250 222.345 C 331.250 222.110,332.102 220.062,333.143 217.795 C 335.986 211.603,337.287 206.069,338.334 195.703 L 339.281 186.328 347.632 172.656 C 352.225 165.137,357.979 155.572,360.419 151.402 L 364.854 143.820 371.346 140.648 C 384.305 134.317,393.105 122.736,397.784 105.859 C 399.671 99.052,400.810 75.772,399.345 73.954 C 398.943 73.455,398.364 71.465,398.058 69.531 C 397.385 65.279,395.176 57.141,393.392 52.344 C 392.672 50.410,391.898 48.242,391.671 47.525 C 390.195 42.870,385.294 43.970,378.978 50.375 C 374.398 55.018,361.911 62.500,358.741 62.500 C 356.617 62.500,338.459 70.527,333.280 73.755 C 318.696 82.845,310.937 94.102,310.938 106.175 C 310.938 111.384,309.684 111.353,306.007 106.055 C 304.441 103.799,302.184 100.898,300.990 99.609 C 299.797 98.320,296.718 94.847,294.149 91.892 C 261.515 54.355,200.859 32.146,150.000 39.111 M154.495 83.218 C 174.671 89.210,176.576 117.858,157.401 126.929 C 146.738 131.973,132.192 127.229,126.819 116.956 C 116.960 98.105,134.132 77.171,154.495 83.218 M242.410 103.495 C 260.191 108.890,265.086 130.897,251.307 143.490 C 236.218 157.281,212.500 146.551,212.500 125.933 C 212.500 110.474,227.737 99.043,242.410 103.495 M336.133 139.485 C 342.121 142.576,342.093 142.519,339.453 146.410 C 338.379 147.993,337.500 149.408,337.500 149.554 C 337.500 150.294,325.861 168.719,315.998 183.594 C 281.654 235.390,254.354 270.497,226.845 298.242 C 216.156 309.023,215.752 307.382,224.393 288.281 C 233.126 268.976,252.247 234.543,266.234 212.936 C 287.781 179.648,313.409 142.857,321.349 133.813 L 323.615 131.232 327.237 133.997 C 329.229 135.518,333.232 137.988,336.133 139.485 M86.356 136.385 C 104.237 144.818,104.244 170.356,86.367 178.888 C 66.126 188.548,45.248 166.896,55.499 146.875 C 60.809 136.504,75.802 131.407,86.356 136.385 M78.684 223.923 C 97.988 230.465,101.083 256.036,83.797 266.167 C 69.787 274.377,52.919 267.483,48.836 251.877 C 44.270 234.425,61.647 218.150,78.684 223.923 " stroke="none" fill="#f5bc5b" fill-rule="evenodd"></path></g></svg>